# Blender v3.4.1 OBJ File: ''
# www.blender.org
mtllib My Torus.mtl
o My_Torus_Torus
v 26.000000 0.000000 0.000000
v 25.638155 2.052121 0.000000
v 24.596266 3.856726 0.000000
v 23.000000 5.196152 0.000000
v 21.041889 5.908846 0.000000
v 18.958111 5.908846 0.000000
v 17.000000 5.196152 0.000000
v 15.403733 3.856726 0.000000
v 14.361844 2.052121 0.000000
v 14.000000 0.000000 0.000000
v 14.361844 -2.052121 0.000000
v 15.403733 -3.856726 0.000000
v 17.000000 -5.196152 0.000000
v 18.958111 -5.908846 0.000000
v 21.041889 -5.908846 0.000000
v 23.000000 -5.196152 0.000000
v 24.596266 -3.856726 0.000000
v 25.638155 -2.052121 0.000000
v 21.872591 0.000000 -14.056662
v 21.568188 2.052121 -13.861033
v 20.691694 3.856726 -13.297746
v 19.348831 5.196152 -12.434739
v 17.701563 5.908846 -11.376104
v 15.948578 5.908846 -10.249529
v 14.301310 5.196152 -9.190894
v 12.958445 3.856726 -8.327888
v 12.081952 2.052121 -7.764599
v 11.777550 0.000000 -7.568972
v 12.081952 -2.052121 -7.764599
v 12.958445 -3.856726 -8.327888
v 14.301310 -5.196152 -9.190894
v 15.948578 -5.908846 -10.249529
v 17.701563 -5.908846 -11.376104
v 19.348831 -5.196152 -12.434739
v 20.691694 -3.856726 -13.297746
v 21.568188 -2.052121 -13.861033
v 10.800795 0.000000 -23.650429
v 10.650478 2.052121 -23.321283
v 10.217662 3.856726 -22.373549
v 9.554549 5.196152 -20.921534
v 8.741120 5.908846 -19.140373
v 7.875487 5.908846 -17.244902
v 7.062058 5.196152 -15.463742
v 6.398944 3.856726 -14.011727
v 5.966128 2.052121 -13.063992
v 5.815812 0.000000 -12.734847
v 5.966128 -2.052121 -13.063992
v 6.398944 -3.856726 -14.011727
v 7.062058 -5.196152 -15.463742
v 7.875487 -5.908846 -17.244902
v 8.741120 -5.908846 -19.140373
v 9.554549 -5.196152 -20.921534
v 10.217662 -3.856726 -22.373549
v 10.650478 -2.052121 -23.321283
v -3.700189 0.000000 -25.735357
v -3.648693 2.052121 -25.377195
v -3.500417 3.856726 -24.345911
v -3.273244 5.196152 -22.765892
v -2.994576 5.908846 -20.827713
v -2.698023 5.908846 -18.765144
v -2.419354 5.196152 -16.826965
v -2.192182 3.856726 -15.246945
v -2.043905 2.052121 -14.215661
v -1.992409 0.000000 -13.857500
v -2.043905 -2.052121 -14.215661
v -2.192182 -3.856726 -15.246945
v -2.419354 -5.196152 -16.826965
v -2.698023 -5.908846 -18.765144
v -2.994576 -5.908846 -20.827713
v -3.273244 -5.196152 -22.765892
v -3.500417 -3.856726 -24.345911
v -3.648693 -2.052121 -25.377195
v -17.026377 0.000000 -19.649490
v -16.789419 2.052121 -19.376026
v -16.107128 3.856726 -18.588619
v -15.061795 5.196152 -17.382242
v -13.779506 5.908846 -15.902400
v -12.414921 5.908846 -14.327585
v -11.132631 5.196152 -12.847744
v -10.087299 3.856726 -11.641366
v -9.405007 2.052121 -10.853958
v -9.168050 0.000000 -10.580495
v -9.405007 -2.052121 -10.853958
v -10.087299 -3.856726 -11.641366
v -11.132631 -5.196152 -12.847744
v -12.414921 -5.908846 -14.327585
v -13.779506 -5.908846 -15.902400
v -15.061795 -5.196152 -17.382242
v -16.107128 -3.856726 -18.588619
v -16.789419 -2.052121 -19.376026
v -24.946819 0.000000 -7.325042
v -24.599630 2.052121 -7.223098
v -23.599945 3.856726 -6.929564
v -22.068340 5.196152 -6.479845
v -20.189547 5.908846 -5.928182
v -18.190176 5.908846 -5.341114
v -16.311382 5.196152 -4.789451
v -14.779775 3.856726 -4.339730
v -13.780089 2.052121 -4.046196
v -13.432902 0.000000 -3.944253
v -13.780089 -2.052121 -4.046196
v -14.779775 -3.856726 -4.339730
v -16.311382 -5.196152 -4.789451
v -18.190176 -5.908846 -5.341114
v -20.189547 -5.908846 -5.928182
v -22.068340 -5.196152 -6.479845
v -23.599945 -3.856726 -6.929564
v -24.599630 -2.052121 -7.223098
v -24.946819 0.000000 7.325042
v -24.599630 2.052121 7.223098
v -23.599945 3.856726 6.929564
v -22.068340 5.196152 6.479845
v -20.189547 5.908846 5.928182
v -18.190176 5.908846 5.341114
v -16.311382 5.196152 4.789451
v -14.779775 3.856726 4.339730
v -13.780089 2.052121 4.046196
v -13.432902 0.000000 3.944253
v -13.780089 -2.052121 4.046196
v -14.779775 -3.856726 4.339730
v -16.311382 -5.196152 4.789451
v -18.190176 -5.908846 5.341114
v -20.189547 -5.908846 5.928182
v -22.068340 -5.196152 6.479845
v -23.599945 -3.856726 6.929564
v -24.599630 -2.052121 7.223098
v -17.026386 0.000000 19.649483
v -16.789429 2.052121 19.376019
v -16.107136 3.856726 18.588612
v -15.061804 5.196152 17.382235
v -13.779513 5.908846 15.902394
v -12.414928 5.908846 14.327579
v -11.132638 5.196152 12.847739
v -10.087305 3.856726 11.641361
v -9.405012 2.052121 10.853954
v -9.168055 0.000000 10.580491
v -9.405012 -2.052121 10.853954
v -10.087305 -3.856726 11.641361
v -11.132638 -5.196152 12.847739
v -12.414928 -5.908846 14.327579
v -13.779513 -5.908846 15.902394
v -15.061804 -5.196152 17.382235
v -16.107136 -3.856726 18.588612
v -16.789429 -2.052121 19.376019
v -3.700201 0.000000 25.735355
v -3.648705 2.052121 25.377193
v -3.500428 3.856726 24.345909
v -3.273255 5.196152 22.765892
v -2.994585 5.908846 20.827711
v -2.698031 5.908846 18.765142
v -2.419362 5.196152 16.826963
v -2.192189 3.856726 15.246944
v -2.043912 2.052121 14.215660
v -1.992416 0.000000 13.857499
v -2.043912 -2.052121 14.215660
v -2.192189 -3.856726 15.246944
v -2.419362 -5.196152 16.826963
v -2.698031 -5.908846 18.765142
v -2.994585 -5.908846 20.827711
v -3.273255 -5.196152 22.765892
v -3.500428 -3.856726 24.345909
v -3.648705 -2.052121 25.377193
v 10.800795 0.000000 23.650429
v 10.650478 2.052121 23.321283
v 10.217662 3.856726 22.373549
v 9.554549 5.196152 20.921534
v 8.741120 5.908846 19.140373
v 7.875487 5.908846 17.244902
v 7.062058 5.196152 15.463742
v 6.398944 3.856726 14.011727
v 5.966128 2.052121 13.063992
v 5.815812 0.000000 12.734847
v 5.966128 -2.052121 13.063992
v 6.398944 -3.856726 14.011727
v 7.062058 -5.196152 15.463742
v 7.875487 -5.908846 17.244902
v 8.741120 -5.908846 19.140373
v 9.554549 -5.196152 20.921534
v 10.217662 -3.856726 22.373549
v 10.650478 -2.052121 23.321283
v 21.872591 0.000000 14.056662
v 21.568188 2.052121 13.861033
v 20.691694 3.856726 13.297746
v 19.348831 5.196152 12.434739
v 17.701563 5.908846 11.376104
v 15.948578 5.908846 10.249529
v 14.301310 5.196152 9.190894
v 12.958445 3.856726 8.327888
v 12.081952 2.052121 7.764599
v 11.777550 0.000000 7.568972
v 12.081952 -2.052121 7.764599
v 12.958445 -3.856726 8.327888
v 14.301310 -5.196152 9.190894
v 15.948578 -5.908846 10.249529
v 17.701563 -5.908846 11.376104
v 19.348831 -5.196152 12.434739
v 20.691694 -3.856726 13.297746
v 21.568188 -2.052121 13.861033
vt 0.545455 0.500000
vt 0.636364 0.500000
vt 0.636364 0.555556
vt 0.545455 0.555556
vt 0.636364 0.611111
vt 0.545455 0.611111
vt 0.636364 0.666667
vt 0.545455 0.666667
vt 0.636364 0.722222
vt 0.545455 0.722222
vt 0.636364 0.777778
vt 0.545455 0.777778
vt 0.636364 0.833333
vt 0.545455 0.833333
vt 0.636364 0.888889
vt 0.545455 0.888889
vt 0.636364 0.944444
vt 0.545455 0.944444
vt 0.636364 1.000000
vt 0.545455 1.000000
vt 0.545455 0.000000
vt 0.636364 0.000000
vt 0.636364 0.055556
vt 0.545455 0.055556
vt 0.636364 0.111111
vt 0.545455 0.111111
vt 0.636364 0.166667
vt 0.545455 0.166667
vt 0.636364 0.222222
vt 0.545455 0.222222
vt 0.636364 0.277778
vt 0.545455 0.277778
vt 0.636364 0.333333
vt 0.545455 0.333333
vt 0.636364 0.388889
vt 0.545455 0.388889
vt 0.636364 0.444444
vt 0.545455 0.444444
vt 0.727273 0.500000
vt 0.727273 0.555556
vt 0.727273 0.611111
vt 0.727273 0.666667
vt 0.727273 0.722222
vt 0.727273 0.777778
vt 0.727273 0.833333
vt 0.727273 0.888889
vt 0.727273 0.944444
vt 0.727273 1.000000
vt 0.727273 0.000000
vt 0.727273 0.055556
vt 0.727273 0.111111
vt 0.727273 0.166667
vt 0.727273 0.222222
vt 0.727273 0.277778
vt 0.727273 0.333333
vt 0.727273 0.388889
vt 0.727273 0.444444
vt 0.818182 0.500000
vt 0.818182 0.555556
vt 0.818182 0.611111
vt 0.818182 0.666667
vt 0.818182 0.722222
vt 0.818182 0.777778
vt 0.818182 0.833333
vt 0.818182 0.888889
vt 0.818182 0.944444
vt 0.818182 1.000000
vt 0.818182 0.000000
vt 0.818182 0.055556
vt 0.818182 0.111111
vt 0.818182 0.166667
vt 0.818182 0.222222
vt 0.818182 0.277778
vt 0.818182 0.333333
vt 0.818182 0.388889
vt 0.818182 0.444444
vt 0.909091 0.500000
vt 0.909091 0.555556
vt 0.909091 0.611111
vt 0.909091 0.666667
vt 0.909091 0.722222
vt 0.909091 0.777778
vt 0.909091 0.833333
vt 0.909091 0.888889
vt 0.909091 0.944444
vt 0.909091 1.000000
vt 0.909091 0.000000
vt 0.909091 0.055556
vt 0.909091 0.111111
vt 0.909091 0.166667
vt 0.909091 0.222222
vt 0.909091 0.277778
vt 0.909091 0.333333
vt 0.909091 0.388889
vt 0.909091 0.444444
vt 1.000000 0.500000
vt 1.000000 0.555556
vt 1.000000 0.611111
vt 1.000000 0.666667
vt 1.000000 0.722222
vt 1.000000 0.777778
vt 1.000000 0.833333
vt 1.000000 0.888889
vt 1.000000 0.944444
vt 1.000000 1.000000
vt 1.000000 0.000000
vt 1.000000 0.055556
vt 1.000000 0.111111
vt 1.000000 0.166667
vt 1.000000 0.222222
vt 1.000000 0.277778
vt 1.000000 0.333333
vt 1.000000 0.388889
vt 1.000000 0.444444
vt 0.000000 0.500000
vt 0.090909 0.500000
vt 0.090909 0.555556
vt 0.000000 0.555556
vt 0.090909 0.611111
vt 0.000000 0.611111
vt 0.090909 0.666667
vt 0.000000 0.666667
vt 0.090909 0.722222
vt 0.000000 0.722222
vt 0.090909 0.777778
vt 0.000000 0.777778
vt 0.090909 0.833333
vt 0.000000 0.833333
vt 0.090909 0.888889
vt 0.000000 0.888889
vt 0.090909 0.944444
vt 0.000000 0.944444
vt 0.090909 1.000000
vt 0.000000 1.000000
vt 0.000000 0.000000
vt 0.090909 0.000000
vt 0.090909 0.055556
vt 0.000000 0.055556
vt 0.090909 0.111111
vt 0.000000 0.111111
vt 0.090909 0.166667
vt 0.000000 0.166667
vt 0.090909 0.222222
vt 0.000000 0.222222
vt 0.090909 0.277778
vt 0.000000 0.277778
vt 0.090909 0.333333
vt 0.000000 0.333333
vt 0.090909 0.388889
vt 0.000000 0.388889
vt 0.090909 0.444444
vt 0.000000 0.444444
vt 0.181818 0.500000
vt 0.181818 0.555556
vt 0.181818 0.611111
vt 0.181818 0.666667
vt 0.181818 0.722222
vt 0.181818 0.777778
vt 0.181818 0.833333
vt 0.181818 0.888889
vt 0.181818 0.944444
vt 0.181818 1.000000
vt 0.181818 0.000000
vt 0.181818 0.055556
vt 0.181818 0.111111
vt 0.181818 0.166667
vt 0.181818 0.222222
vt 0.181818 0.277778
vt 0.181818 0.333333
vt 0.181818 0.388889
vt 0.181818 0.444444
vt 0.272727 0.500000
vt 0.272727 0.555556
vt 0.272727 0.611111
vt 0.272727 0.666667
vt 0.272727 0.722222
vt 0.272727 0.777778
vt 0.272727 0.833333
vt 0.272727 0.888889
vt 0.272727 0.944444
vt 0.272727 1.000000
vt 0.272727 0.000000
vt 0.272727 0.055556
vt 0.272727 0.111111
vt 0.272727 0.166667
vt 0.272727 0.222222
vt 0.272727 0.277778
vt 0.272727 0.333333
vt 0.272727 0.388889
vt 0.272727 0.444444
vt 0.363636 0.500000
vt 0.363636 0.555556
vt 0.363636 0.611111
vt 0.363636 0.666667
vt 0.363636 0.722222
vt 0.363636 0.777778
vt 0.363636 0.833333
vt 0.363636 0.888889
vt 0.363636 0.944444
vt 0.363636 1.000000
vt 0.363636 0.000000
vt 0.363636 0.055556
vt 0.363636 0.111111
vt 0.363636 0.166667
vt 0.363636 0.222222
vt 0.363636 0.277778
vt 0.363636 0.333333
vt 0.363636 0.388889
vt 0.363636 0.444444
vt 0.454545 0.500000
vt 0.454545 0.555556
vt 0.454545 0.611111
vt 0.454545 0.666667
vt 0.454545 0.722222
vt 0.454545 0.777778
vt 0.454545 0.833333
vt 0.454545 0.888889
vt 0.454545 0.944444
vt 0.454545 1.000000
vt 0.454545 0.000000
vt 0.454545 0.055556
vt 0.454545 0.111111
vt 0.454545 0.166667
vt 0.454545 0.222222
vt 0.454545 0.277778
vt 0.454545 0.333333
vt 0.454545 0.388889
vt 0.454545 0.444444
vn 0.9460 0.1668 -0.2778
vn 0.8393 0.4846 -0.2464
vn 0.6316 0.7528 -0.1855
vn 0.3403 0.9350 -0.0999
vn 0.0000 1.0000 0.0000
vn -0.3403 0.9350 0.0999
vn -0.6316 0.7528 0.1855
vn -0.8393 0.4846 0.2464
vn -0.9460 0.1668 0.2778
vn -0.9460 -0.1668 0.2778
vn -0.8393 -0.4846 0.2464
vn -0.6316 -0.7528 0.1855
vn -0.3403 -0.9350 0.0999
vn 0.0000 -1.0000 0.0000
vn 0.3403 -0.9350 -0.0999
vn 0.6316 -0.7528 -0.1855
vn 0.8393 -0.4846 -0.2464
vn 0.9460 -0.1668 -0.2778
vn 0.6457 0.1668 -0.7452
vn 0.5728 0.4846 -0.6611
vn 0.4311 0.7528 -0.4975
vn 0.2323 0.9350 -0.2680
vn -0.2323 0.9350 0.2680
vn -0.4311 0.7528 0.4975
vn -0.5728 0.4846 0.6611
vn -0.6457 0.1668 0.7452
vn -0.6457 -0.1668 0.7452
vn -0.5728 -0.4846 0.6611
vn -0.4311 -0.7528 0.4975
vn -0.2323 -0.9350 0.2680
vn 0.2323 -0.9350 -0.2680
vn 0.4311 -0.7528 -0.4975
vn 0.5728 -0.4846 -0.6611
vn 0.6457 -0.1668 -0.7452
vn 0.1403 0.1668 -0.9760
vn 0.1245 0.4846 -0.8658
vn 0.0937 0.7528 -0.6516
vn 0.0505 0.9350 -0.3511
vn -0.0505 0.9350 0.3511
vn -0.0937 0.7528 0.6516
vn -0.1245 0.4846 0.8658
vn -0.1403 0.1668 0.9760
vn -0.1403 -0.1668 0.9760
vn -0.1245 -0.4846 0.8658
vn -0.0937 -0.7528 0.6516
vn -0.0505 -0.9350 0.3511
vn 0.0505 -0.9350 -0.3511
vn 0.0937 -0.7528 -0.6516
vn 0.1245 -0.4846 -0.8658
vn 0.1403 -0.1668 -0.9760
vn -0.4096 0.1668 -0.8969
vn -0.3634 0.4846 -0.7957
vn -0.2735 0.7528 -0.5988
vn -0.1473 0.9350 -0.3226
vn 0.1473 0.9350 0.3226
vn 0.2735 0.7528 0.5988
vn 0.3634 0.4846 0.7957
vn 0.4096 0.1668 0.8969
vn 0.4096 -0.1668 0.8969
vn 0.3634 -0.4846 0.7957
vn 0.2735 -0.7528 0.5988
vn 0.1473 -0.9350 0.3226
vn -0.1473 -0.9350 -0.3226
vn -0.2735 -0.7528 -0.5988
vn -0.3634 -0.4846 -0.7957
vn -0.4096 -0.1668 -0.8969
vn -0.8295 0.1668 -0.5331
vn -0.7359 0.4846 -0.4729
vn -0.5538 0.7528 -0.3559
vn -0.2984 0.9350 -0.1918
vn 0.2984 0.9350 0.1918
vn 0.5538 0.7528 0.3559
vn 0.7359 0.4846 0.4729
vn 0.8295 0.1668 0.5331
vn 0.8295 -0.1668 0.5331
vn 0.7359 -0.4846 0.4729
vn 0.5538 -0.7528 0.3559
vn 0.2984 -0.9350 0.1918
vn -0.2984 -0.9350 -0.1918
vn -0.5538 -0.7528 -0.3559
vn -0.7359 -0.4846 -0.4729
vn -0.8295 -0.1668 -0.5331
vn -0.9860 0.1668 0.0000
vn -0.8747 0.4846 0.0000
vn -0.6583 0.7528 0.0000
vn -0.3547 0.9350 0.0000
vn 0.3547 0.9350 0.0000
vn 0.6583 0.7528 0.0000
vn 0.8747 0.4846 0.0000
vn 0.9860 0.1668 0.0000
vn 0.9860 -0.1668 0.0000
vn 0.8747 -0.4846 0.0000
vn 0.6583 -0.7528 0.0000
vn 0.3547 -0.9350 0.0000
vn -0.3547 -0.9350 0.0000
vn -0.6583 -0.7528 0.0000
vn -0.8747 -0.4846 0.0000
vn -0.9860 -0.1668 0.0000
vn -0.8295 0.1668 0.5331
vn -0.7359 0.4846 0.4729
vn -0.5538 0.7528 0.3559
vn -0.2984 0.9350 0.1918
vn 0.2984 0.9350 -0.1918
vn 0.5538 0.7528 -0.3559
vn 0.7359 0.4846 -0.4729
vn 0.8295 0.1668 -0.5331
vn 0.8295 -0.1668 -0.5331
vn 0.7359 -0.4846 -0.4729
vn 0.5538 -0.7528 -0.3559
vn 0.2984 -0.9350 -0.1918
vn -0.2984 -0.9350 0.1918
vn -0.5538 -0.7528 0.3559
vn -0.7359 -0.4846 0.4729
vn -0.8295 -0.1668 0.5331
vn -0.4096 0.1668 0.8969
vn -0.3634 0.4846 0.7957
vn -0.2735 0.7528 0.5988
vn -0.1473 0.9350 0.3226
vn 0.1473 0.9350 -0.3226
vn 0.2735 0.7528 -0.5988
vn 0.3634 0.4846 -0.7957
vn 0.4096 0.1668 -0.8969
vn 0.4096 -0.1668 -0.8969
vn 0.3634 -0.4846 -0.7957
vn 0.2735 -0.7528 -0.5988
vn 0.1473 -0.9350 -0.3226
vn -0.1473 -0.9350 0.3226
vn -0.2735 -0.7528 0.5988
vn -0.3634 -0.4846 0.7957
vn -0.4096 -0.1668 0.8969
vn 0.1403 0.1668 0.9760
vn 0.1245 0.4846 0.8658
vn 0.0937 0.7528 0.6516
vn 0.0505 0.9350 0.3511
vn -0.0505 0.9350 -0.3511
vn -0.0937 0.7528 -0.6516
vn -0.1245 0.4846 -0.8658
vn -0.1403 0.1668 -0.9760
vn -0.1403 -0.1668 -0.9760
vn -0.1245 -0.4846 -0.8658
vn -0.0937 -0.7528 -0.6516
vn -0.0505 -0.9350 -0.3511
vn 0.0505 -0.9350 0.3511
vn 0.0937 -0.7528 0.6516
vn 0.1245 -0.4846 0.8658
vn 0.1403 -0.1668 0.9760
vn 0.6457 0.1668 0.7452
vn 0.5728 0.4846 0.6611
vn 0.4311 0.7528 0.4975
vn 0.2323 0.9350 0.2680
vn -0.2323 0.9350 -0.2680
vn -0.4311 0.7528 -0.4975
vn -0.5728 0.4846 -0.6611
vn -0.6457 0.1668 -0.7452
vn -0.6457 -0.1668 -0.7452
vn -0.5728 -0.4846 -0.6611
vn -0.4311 -0.7528 -0.4975
vn -0.2323 -0.9350 -0.2680
vn 0.2323 -0.9350 0.2680
vn 0.4311 -0.7528 0.4975
vn 0.5728 -0.4846 0.6611
vn 0.6457 -0.1668 0.7452
vn 0.9460 0.1668 0.2778
vn 0.8393 0.4846 0.2464
vn 0.6316 0.7528 0.1855
vn 0.3403 0.9350 0.0999
vn -0.3403 0.9350 -0.0999
vn -0.6316 0.7528 -0.1855
vn -0.8393 0.4846 -0.2464
vn -0.9460 0.1668 -0.2778
vn -0.9460 -0.1668 -0.2778
vn -0.8393 -0.4846 -0.2464
vn -0.6316 -0.7528 -0.1855
vn -0.3403 -0.9350 -0.0999
vn 0.3403 -0.9350 0.0999
vn 0.6316 -0.7528 0.1855
vn 0.8393 -0.4846 0.2464
vn 0.9460 -0.1668 0.2778
usemtl None
s off
f 1/1/1 19/2/1 20/3/1 2/4/1
f 2/4/2 20/3/2 21/5/2 3/6/2
f 3/6/3 21/5/3 22/7/3 4/8/3
f 4/8/4 22/7/4 23/9/4 5/10/4
f 5/10/5 23/9/5 24/11/5 6/12/5
f 6/12/6 24/11/6 25/13/6 7/14/6
f 7/14/7 25/13/7 26/15/7 8/16/7
f 8/16/8 26/15/8 27/17/8 9/18/8
f 9/18/9 27/17/9 28/19/9 10/20/9
f 10/21/10 28/22/10 29/23/10 11/24/10
f 11/24/11 29/23/11 30/25/11 12/26/11
f 12/26/12 30/25/12 31/27/12 13/28/12
f 13/28/13 31/27/13 32/29/13 14/30/13
f 14/30/14 32/29/14 33/31/14 15/32/14
f 15/32/15 33/31/15 34/33/15 16/34/15
f 16/34/16 34/33/16 35/35/16 17/36/16
f 17/36/17 35/35/17 36/37/17 18/38/17
f 18/38/18 36/37/18 19/2/18 1/1/18
f 19/2/19 37/39/19 38/40/19 20/3/19
f 20/3/20 38/40/20 39/41/20 21/5/20
f 21/5/21 39/41/21 40/42/21 22/7/21
f 22/7/22 40/42/22 41/43/22 23/9/22
f 23/9/5 41/43/5 42/44/5 24/11/5
f 24/11/23 42/44/23 43/45/23 25/13/23
f 25/13/24 43/45/24 44/46/24 26/15/24
f 26/15/25 44/46/25 45/47/25 27/17/25
f 27/17/26 45/47/26 46/48/26 28/19/26
f 28/22/27 46/49/27 47/50/27 29/23/27
f 29/23/28 47/50/28 48/51/28 30/25/28
f 30/25/29 48/51/29 49/52/29 31/27/29
f 31/27/30 49/52/30 50/53/30 32/29/30
f 32/29/14 50/53/14 51/54/14 33/31/14
f 33/31/31 51/54/31 52/55/31 34/33/31
f 34/33/32 52/55/32 53/56/32 35/35/32
f 35/35/33 53/56/33 54/57/33 36/37/33
f 36/37/34 54/57/34 37/39/34 19/2/34
f 37/39/35 55/58/35 56/59/35 38/40/35
f 38/40/36 56/59/36 57/60/36 39/41/36
f 39/41/37 57/60/37 58/61/37 40/42/37
f 40/42/38 58/61/38 59/62/38 41/43/38
f 41/43/5 59/62/5 60/63/5 42/44/5
f 42/44/39 60/63/39 61/64/39 43/45/39
f 43/45/40 61/64/40 62/65/40 44/46/40
f 44/46/41 62/65/41 63/66/41 45/47/41
f 45/47/42 63/66/42 64/67/42 46/48/42
f 46/49/43 64/68/43 65/69/43 47/50/43
f 47/50/44 65/69/44 66/70/44 48/51/44
f 48/51/45 66/70/45 67/71/45 49/52/45
f 49/52/46 67/71/46 68/72/46 50/53/46
f 50/53/14 68/72/14 69/73/14 51/54/14
f 51/54/47 69/73/47 70/74/47 52/55/47
f 52/55/48 70/74/48 71/75/48 53/56/48
f 53/56/49 71/75/49 72/76/49 54/57/49
f 54/57/50 72/76/50 55/58/50 37/39/50
f 55/58/51 73/77/51 74/78/51 56/59/51
f 56/59/52 74/78/52 75/79/52 57/60/52
f 57/60/53 75/79/53 76/80/53 58/61/53
f 58/61/54 76/80/54 77/81/54 59/62/54
f 59/62/5 77/81/5 78/82/5 60/63/5
f 60/63/55 78/82/55 79/83/55 61/64/55
f 61/64/56 79/83/56 80/84/56 62/65/56
f 62/65/57 80/84/57 81/85/57 63/66/57
f 63/66/58 81/85/58 82/86/58 64/67/58
f 64/68/59 82/87/59 83/88/59 65/69/59
f 65/69/60 83/88/60 84/89/60 66/70/60
f 66/70/61 84/89/61 85/90/61 67/71/61
f 67/71/62 85/90/62 86/91/62 68/72/62
f 68/72/14 86/91/14 87/92/14 69/73/14
f 69/73/63 87/92/63 88/93/63 70/74/63
f 70/74/64 88/93/64 89/94/64 71/75/64
f 71/75/65 89/94/65 90/95/65 72/76/65
f 72/76/66 90/95/66 73/77/66 55/58/66
f 73/77/67 91/96/67 92/97/67 74/78/67
f 74/78/68 92/97/68 93/98/68 75/79/68
f 75/79/69 93/98/69 94/99/69 76/80/69
f 76/80/70 94/99/70 95/100/70 77/81/70
f 77/81/5 95/100/5 96/101/5 78/82/5
f 78/82/71 96/101/71 97/102/71 79/83/71
f 79/83/72 97/102/72 98/103/72 80/84/72
f 80/84/73 98/103/73 99/104/73 81/85/73
f 81/85/74 99/104/74 100/105/74 82/86/74
f 82/87/75 100/106/75 101/107/75 83/88/75
f 83/88/76 101/107/76 102/108/76 84/89/76
f 84/89/77 102/108/77 103/109/77 85/90/77
f 85/90/78 103/109/78 104/110/78 86/91/78
f 86/91/14 104/110/14 105/111/14 87/92/14
f 87/92/79 105/111/79 106/112/79 88/93/79
f 88/93/80 106/112/80 107/113/80 89/94/80
f 89/94/81 107/113/81 108/114/81 90/95/81
f 90/95/82 108/114/82 91/96/82 73/77/82
f 91/115/83 109/116/83 110/117/83 92/118/83
f 92/118/84 110/117/84 111/119/84 93/120/84
f 93/120/85 111/119/85 112/121/85 94/122/85
f 94/122/86 112/121/86 113/123/86 95/124/86
f 95/124/5 113/123/5 114/125/5 96/126/5
f 96/126/87 114/125/87 115/127/87 97/128/87
f 97/128/88 115/127/88 116/129/88 98/130/88
f 98/130/89 116/129/89 117/131/89 99/132/89
f 99/132/90 117/131/90 118/133/90 100/134/90
f 100/135/91 118/136/91 119/137/91 101/138/91
f 101/138/92 119/137/92 120/139/92 102/140/92
f 102/140/93 120/139/93 121/141/93 103/142/93
f 103/142/94 121/141/94 122/143/94 104/144/94
f 104/144/14 122/143/14 123/145/14 105/146/14
f 105/146/95 123/145/95 124/147/95 106/148/95
f 106/148/96 124/147/96 125/149/96 107/150/96
f 107/150/97 125/149/97 126/151/97 108/152/97
f 108/152/98 126/151/98 109/116/98 91/115/98
f 109/116/99 127/153/99 128/154/99 110/117/99
f 110/117/100 128/154/100 129/155/100 111/119/100
f 111/119/101 129/155/101 130/156/101 112/121/101
f 112/121/102 130/156/102 131/157/102 113/123/102
f 113/123/5 131/157/5 132/158/5 114/125/5
f 114/125/103 132/158/103 133/159/103 115/127/103
f 115/127/104 133/159/104 134/160/104 116/129/104
f 116/129/105 134/160/105 135/161/105 117/131/105
f 117/131/106 135/161/106 136/162/106 118/133/106
f 118/136/107 136/163/107 137/164/107 119/137/107
f 119/137/108 137/164/108 138/165/108 120/139/108
f 120/139/109 138/165/109 139/166/109 121/141/109
f 121/141/110 139/166/110 140/167/110 122/143/110
f 122/143/14 140/167/14 141/168/14 123/145/14
f 123/145/111 141/168/111 142/169/111 124/147/111
f 124/147/112 142/169/112 143/170/112 125/149/112
f 125/149/113 143/170/113 144/171/113 126/151/113
f 126/151/114 144/171/114 127/153/114 109/116/114
f 127/153/115 145/172/115 146/173/115 128/154/115
f 128/154/116 146/173/116 147/174/116 129/155/116
f 129/155/117 147/174/117 148/175/117 130/156/117
f 130/156/118 148/175/118 149/176/118 131/157/118
f 131/157/5 149/176/5 150/177/5 132/158/5
f 132/158/119 150/177/119 151/178/119 133/159/119
f 133/159/120 151/178/120 152/179/120 134/160/120
f 134/160/121 152/179/121 153/180/121 135/161/121
f 135/161/122 153/180/122 154/181/122 136/162/122
f 136/163/123 154/182/123 155/183/123 137/164/123
f 137/164/124 155/183/124 156/184/124 138/165/124
f 138/165/125 156/184/125 157/185/125 139/166/125
f 139/166/126 157/185/126 158/186/126 140/167/126
f 140/167/14 158/186/14 159/187/14 141/168/14
f 141/168/127 159/187/127 160/188/127 142/169/127
f 142/169/128 160/188/128 161/189/128 143/170/128
f 143/170/129 161/189/129 162/190/129 144/171/129
f 144/171/130 162/190/130 145/172/130 127/153/130
f 145/172/131 163/191/131 164/192/131 146/173/131
f 146/173/132 164/192/132 165/193/132 147/174/132
f 147/174/133 165/193/133 166/194/133 148/175/133
f 148/175/134 166/194/134 167/195/134 149/176/134
f 149/176/5 167/195/5 168/196/5 150/177/5
f 150/177/135 168/196/135 169/197/135 151/178/135
f 151/178/136 169/197/136 170/198/136 152/179/136
f 152/179/137 170/198/137 171/199/137 153/180/137
f 153/180/138 171/199/138 172/200/138 154/181/138
f 154/182/139 172/201/139 173/202/139 155/183/139
f 155/183/140 173/202/140 174/203/140 156/184/140
f 156/184/141 174/203/141 175/204/141 157/185/141
f 157/185/142 175/204/142 176/205/142 158/186/142
f 158/186/14 176/205/14 177/206/14 159/187/14
f 159/187/143 177/206/143 178/207/143 160/188/143
f 160/188/144 178/207/144 179/208/144 161/189/144
f 161/189/145 179/208/145 180/209/145 162/190/145
f 162/190/146 180/209/146 163/191/146 145/172/146
f 163/191/147 181/210/147 182/211/147 164/192/147
f 164/192/148 182/211/148 183/212/148 165/193/148
f 165/193/149 183/212/149 184/213/149 166/194/149
f 166/194/150 184/213/150 185/214/150 167/195/150
f 167/195/5 185/214/5 186/215/5 168/196/5
f 168/196/151 186/215/151 187/216/151 169/197/151
f 169/197/152 187/216/152 188/217/152 170/198/152
f 170/198/153 188/217/153 189/218/153 171/199/153
f 171/199/154 189/218/154 190/219/154 172/200/154
f 172/201/155 190/220/155 191/221/155 173/202/155
f 173/202/156 191/221/156 192/222/156 174/203/156
f 174/203/157 192/222/157 193/223/157 175/204/157
f 175/204/158 193/223/158 194/224/158 176/205/158
f 176/205/14 194/224/14 195/225/14 177/206/14
f 177/206/159 195/225/159 196/226/159 178/207/159
f 178/207/160 196/226/160 197/227/160 179/208/160
f 179/208/161 197/227/161 198/228/161 180/209/161
f 180/209/162 198/228/162 181/210/162 163/191/162
f 181/210/163 1/1/163 2/4/163 182/211/163
f 182/211/164 2/4/164 3/6/164 183/212/164
f 183/212/165 3/6/165 4/8/165 184/213/165
f 184/213/166 4/8/166 5/10/166 185/214/166
f 185/214/5 5/10/5 6/12/5 186/215/5
f 186/215/167 6/12/167 7/14/167 187/216/167
f 187/216/168 7/14/168 8/16/168 188/217/168
f 188/217/169 8/16/169 9/18/169 189/218/169
f 189/218/170 9/18/170 10/20/170 190/219/170
f 190/220/171 10/21/171 11/24/171 191/221/171
f 191/221/172 11/24/172 12/26/172 192/222/172
f 192/222/173 12/26/173 13/28/173 193/223/173
f 193/223/174 13/28/174 14/30/174 194/224/174
f 194/224/14 14/30/14 15/32/14 195/225/14
f 195/225/175 15/32/175 16/34/175 196/226/175
f 196/226/176 16/34/176 17/36/176 197/227/176
f 197/227/177 17/36/177 18/38/177 198/228/177
f 198/228/178 18/38/178 1/1/178 181/210/178
